<svg width="365" height="365" viewBox="0 0 365 365" fill="none" xmlns="http://www.w3.org/2000/svg">
<g clip-path="url(#clip0_16_284)">
<path d="M350.102 89.3878C358.317 89.3878 365 82.7045 365 74.4898V14.898C365 6.68322 358.317 0 350.102 0H14.898C6.68322 0 0 6.68322 0 14.898V74.4898C0 82.7045 6.68322 89.3878 14.898 89.3878H26.0714V275.612H14.898C6.68322 275.612 0 282.295 0 290.51V350.102C0 358.317 6.68322 365 14.898 365H350.102C358.317 365 365 358.317 365 350.102V290.51C365 282.295 358.317 275.612 350.102 275.612H338.929V89.3878H350.102ZM242.092 350.102H122.908V320.306H242.092V350.102ZM350.102 290.51L350.104 350.102H256.99V312.857C256.99 308.744 253.654 305.408 249.541 305.408H115.459C111.345 305.408 108.01 308.744 108.01 312.857V350.102H14.898V290.51H350.102ZM163.878 141.531V115.459H201.122V141.531H163.878ZM201.122 156.429V167.602H163.878V156.429H201.122ZM40.9694 100.561V89.3878H324.031V100.561H40.9694ZM148.98 115.459V175.051C148.98 179.165 152.315 182.5 156.429 182.5H175.051V201.122H189.949V182.5H208.571C212.685 182.5 216.02 179.165 216.02 175.051V115.459H324.031V126.633H227.194V141.531H290.51V275.612H74.4898V141.531H137.806V126.633H40.9694V115.459H148.98ZM324.031 141.531V275.612H305.408V141.531H324.031ZM59.5918 141.531V275.612H40.9694V141.531H59.5918ZM14.898 74.4898V14.898H350.102L350.104 74.4898H14.898Z" fill="#D9D9D9"/>
<path d="M216.021 26.0714H148.98C144.866 26.0714 141.531 29.4071 141.531 33.5204V55.8673C141.531 59.9814 144.866 63.3163 148.98 63.3163H216.021C220.134 63.3163 223.47 59.9814 223.47 55.8673V33.5204C223.47 29.4071 220.134 26.0714 216.021 26.0714ZM208.572 48.4183H156.429V40.9694H208.572V48.4183Z" fill="#D9D9D9"/>
<path d="M249.541 37.2449H234.643V52.1428H249.541V37.2449Z" fill="#D9D9D9"/>
<path d="M309.133 37.2449H264.439V52.1428H309.133V37.2449Z" fill="#D9D9D9"/>
<path d="M100.561 37.2449H55.8674V52.1428H100.561V37.2449Z" fill="#D9D9D9"/>
<path d="M130.357 37.2449H115.459V52.1428H130.357V37.2449Z" fill="#D9D9D9"/>
<path d="M204.847 327.755H160.153V342.653H204.847V327.755Z" fill="#D9D9D9"/>
<path d="M331.48 312.857H316.582V327.755H331.48V312.857Z" fill="#D9D9D9"/>
<path d="M48.4185 312.857H33.5205V327.755H48.4185V312.857Z" fill="#D9D9D9"/>
</g>
<defs>
<clipPath id="clip0_16_284">
<rect width="365" height="365" fill="white"/>
</clipPath>
</defs>
</svg>
